ply
format ascii 1.0
comment VCGLIB generated
element vertex 213
property float x
property float y
property float z
property float nx
property float ny
property float nz
property uchar red
property uchar green
property uchar blue
property uchar alpha
property float texture_u
property float texture_v
element face 373
property list uchar int vertex_indices
end_header
-15.06532 0.992775 -9.249999 -0.6847932 0.6466417 -0.3360251 255 255 255 255 -0.684793 0.646642
1.597094 -2.201302 9.249999 0.372815 -0.5851534 0.720142 255 255 255 255 0.372815 -0.585153
1.159394 -2.352013 -9.249999 -0.1926844 0.3525609 -0.9157366 255 255 255 255 -0.192684 0.352561
-15.06532 0.99276 9.249999 -0.4191186 0.3937251 0.8181199 255 255 255 255 -0.419119 0.393725
16.00767 0.992775 -9.249999 0.6847923 0.646643 -0.3360246 255 255 255 255 0.684792 0.646643
16.00767 0.99276 9.249999 0.4191184 0.3937261 0.8181195 255 255 255 255 0.419118 0.393726
-0.460359 -1.972786 9.249999 0.3894319 0.5727637 0.7213076 255 255 255 255 0.389432 0.572764
-0.460359 -1.972786 -9.249999 0.5915391 0.5701312 -0.5701157 255 255 255 255 0.591539 0.570131
6.349318 -0.463036 -9.249999 -0.1722836 0.7810896 -0.6001812 255 255 255 255 -0.172284 0.781090
6.349318 -0.463036 9.249999 -0.120969 0.5413066 0.8320779 255 255 255 255 -0.120969 0.541307
-5.406965 -0.463036 9.249999 0.120969 0.5413066 0.832078 255 255 255 255 0.120969 0.541307
-5.406965 -0.463036 -9.249999 0.1722836 0.7810895 -0.6001813 255 255 255 255 0.172284 0.781090
1.402707 -1.972786 9.249999 -0.3894317 0.5727637 0.7213076 255 255 255 255 -0.389432 0.572764
-0.654747 -2.201302 -9.249999 -0.4052621 -0.4228405 -0.810536 255 255 255 255 -0.405262 -0.422841
1.402707 -1.972786 -9.249999 -0.5915391 0.5701312 -0.5701157 255 255 255 255 -0.591539 0.570131
-0.654747 -2.201302 9.249999 -0.3728154 -0.5851531 0.720142 255 255 255 255 -0.372815 -0.585153
-13.47154 0.96978 -9.249999 0.06541613 0.5504143 -0.832325 255 255 255 255 0.065416 0.550414
14.41389 0.96978 -9.249999 -0.06541609 0.5504143 -0.832325 255 255 255 255 -0.065416 0.550414
14.9615 0.708702 9.249999 0.01999529 -0.7064894 0.7074412 255 255 255 255 0.019995 -0.706489
-14.01916 0.708702 9.249999 -0.01999472 -0.7064894 0.7074412 255 255 255 255 -0.019995 -0.706489
-13.50682 0.671867 -9.249999 -0.07248884 -0.7030402 -0.707446 255 255 255 255 -0.072489 -0.703040
14.44917 0.671867 -9.249999 0.0724895 -0.7030402 -0.707446 255 255 255 255 0.072490 -0.703040
1.303527 -2.615135 9.249999 0.3048694 -0.5900649 0.7475815 255 255 255 255 0.304869 -0.590065
6.41474 -0.755806 9.249999 0.1209633 -0.5413077 0.832078 255 255 255 255 0.120963 -0.541308
-5.472394 -0.755806 9.249999 -0.1209632 -0.5413079 0.832078 255 255 255 255 -0.120963 -0.541308
-13.47154 0.96978 9.249999 0.08014096 0.7020325 0.7076212 255 255 255 255 0.080141 0.702033
14.41389 0.96978 9.249999 -0.08014093 0.7020325 0.7076212 255 255 255 255 -0.080141 0.702033
-5.472394 -0.755806 -9.249999 -0.1723127 -0.7812666 -0.5999424 255 255 255 255 -0.172313 -0.781267
6.41474 -0.755806 -9.249999 0.1723129 -0.7812664 -0.5999425 255 255 255 255 0.172313 -0.781266
15.99652 0.69297 -9.249999 0.3214056 -0.6756864 -0.6634353 255 255 255 255 0.321406 -0.675686
-15.05417 0.69297 -9.249999 -0.3214053 -0.675687 -0.6634349 255 255 255 255 -0.321405 -0.675687
1.303527 -2.61512 -9.249999 0.304867 -0.5900665 -0.7475812 255 255 255 255 0.304867 -0.590066
-0.361181 -2.61512 -9.249999 -0.2019283 -0.6384082 -0.7427382 255 255 255 255 -0.201928 -0.638408
1.159394 -2.352013 9.249999 -0.4166821 0.7624167 0.4950726 255 255 255 255 -0.416682 0.762417
15.99652 0.69297 9.249999 0.8038618 -0.4353684 0.4052907 255 255 255 255 0.803862 -0.435368
-15.05417 0.69297 9.249999 -0.8038609 -0.4353705 0.4052903 255 255 255 255 -0.803861 -0.435371
-2.009311 -1.354637 9.249999 0.2097328 0.6751701 0.7072182 255 255 255 255 0.209733 0.675170
-0.361181 -2.615135 9.249999 -0.4038596 -0.5340759 0.7427385 255 255 255 255 -0.403860 -0.534076
1.597094 -2.201302 -9.249999 0.4052616 -0.4228411 -0.8105359 255 255 255 255 0.405262 -0.422841
-0.217046 -2.352013 -9.249999 0.2093702 0.6318503 -0.746277 255 255 255 255 0.209370 0.631850
2.951659 -1.354637 9.249999 -0.209733 0.67517 0.7072182 255 255 255 255 -0.209733 0.675170
-0.217046 -2.352013 9.249999 0.4187403 0.5174237 0.746277 255 255 255 255 0.418740 0.517424
-1.743129 -1.446968 -9.249999 0.195736 0.5668274 -0.8002463 255 255 255 255 0.195736 0.566827
2.685477 -1.446968 -9.249999 -0.1957362 0.5668273 -0.8002464 255 255 255 255 -0.195736 0.566827
2.787314 -1.729164 9.249999 0.1893524 -0.5212072 0.8321591 255 255 255 255 0.189352 -0.521207
-1.844966 -1.729164 9.249999 -0.1893525 -0.5212071 0.8321591 255 255 255 255 -0.189352 -0.521207
-1.844966 -1.729149 -9.249999 -0.2731286 -0.7518008 -0.6001637 255 255 255 255 -0.273129 -0.751801
2.787314 -1.729149 -9.249999 0.2731285 -0.7518008 -0.6001637 255 255 255 255 0.273129 -0.751801
9.407043 0.137993 9.249999 -0.09591369 0.5463286 0.8320611 255 255 255 255 -0.095914 0.546329
-8.464694 0.137993 9.249999 0.09591367 0.5463286 0.8320611 255 255 255 255 0.095914 0.546329
-8.51719 -0.157387 9.249999 -0.09592739 -0.5463265 0.8320609 255 255 255 255 -0.095927 -0.546326
9.459536 -0.157387 9.249999 0.09592742 -0.5463265 0.8320609 255 255 255 255 0.095927 -0.546326
9.407043 0.137993 -9.249999 -0.1405056 0.7874503 -0.6001502 255 255 255 255 -0.140506 0.787450
-8.464694 0.137993 -9.249999 0.1405055 0.7874504 -0.6001502 255 255 255 255 0.140505 0.787450
9.459536 -0.157387 -9.249999 0.1405552 -0.7876236 -0.5999112 255 255 255 255 0.140555 -0.787624
-8.51719 -0.157387 -9.249999 -0.1405552 -0.7876236 -0.5999111 255 255 255 255 -0.140555 -0.787624
-13.50682 0.671852 9.249999 -0.1109111 -0.8243774 0.5550682 255 255 255 255 -0.110911 -0.824377
14.44917 0.671852 9.249999 0.1109114 -0.8243774 0.5550682 255 255 255 255 0.110911 -0.824377
15.21725 1.012749 9.249999 -0.003664325 0.8318734 0.5549535 255 255 255 255 -0.003664 0.831873
-14.2749 1.012749 9.249999 0.003664329 0.8318734 0.5549534 255 255 255 255 0.003664 0.831873
-3.860296 -0.832619 -9.249999 0.1844374 0.682453 -0.7072771 255 255 255 255 0.184437 0.682453
4.802645 -0.832619 -9.249999 -0.1844372 0.6824532 -0.7072769 255 255 255 255 -0.184437 0.682453
4.877486 -1.123131 -9.249999 0.1803955 -0.6836582 -0.7071556 255 255 255 255 0.180395 -0.683658
-3.935136 -1.123131 -9.249999 -0.1803955 -0.6836581 -0.7071556 255 255 255 255 -0.180395 -0.683658
-14.00919 1.008537 -9.249999 0.02602798 0.706392 -0.7073421 255 255 255 255 0.026028 0.706392
14.95154 1.008537 -9.249999 -0.02602795 0.706392 -0.7073421 255 255 255 255 -0.026028 0.706392
-14.01916 0.708702 -9.249999 -0.01567825 -0.5541152 -0.8322923 255 255 255 255 -0.015678 -0.554115
14.9615 0.708702 -9.249999 0.0156787 -0.5541152 -0.8322923 255 255 255 255 0.015679 -0.554115
-3.860296 -0.832634 9.249999 0.1735532 0.6854113 0.7071708 255 255 255 255 0.173553 0.685411
4.802645 -0.832634 9.249999 -0.1735529 0.6854115 0.7071708 255 255 255 255 -0.173553 0.685412
4.877486 -1.123146 9.249999 0.1723735 -0.6857252 0.7071552 255 255 255 255 0.172373 -0.685725
-3.935136 -1.123146 9.249999 -0.1723734 -0.6857252 0.7071552 255 255 255 255 -0.172373 -0.685725
2.16537 -1.647972 -9.249999 -0.2684044 0.6541591 -0.7071316 255 255 255 255 -0.268404 0.654159
-1.223022 -1.647972 -9.249999 0.2684046 0.654159 -0.7071316 255 255 255 255 0.268405 0.654159
2.423674 -1.545143 9.249999 -0.2560391 0.6590046 0.7072178 255 255 255 255 -0.256039 0.659005
-1.481324 -1.545143 9.249999 0.256039 0.6590046 0.7072178 255 255 255 255 0.256039 0.659005
-2.365714 -1.556999 9.249999 -0.2321851 -0.765473 0.6001177 255 255 255 255 -0.232185 -0.765473
3.308062 -1.556999 9.249999 0.2321849 -0.7654731 0.6001177 255 255 255 255 0.232185 -0.765473
3.308062 -1.556984 -9.249999 0.2052154 -0.6765594 -0.7072157 255 255 255 255 0.205215 -0.676559
-2.365714 -1.556984 -9.249999 -0.2052155 -0.6765593 -0.7072158 255 255 255 255 -0.205215 -0.676559
-6.936513 -0.144753 9.249999 0.1363846 0.6939269 0.7070112 255 255 255 255 0.136385 0.693927
7.878863 -0.144753 9.249999 -0.1363848 0.6939269 0.7070111 255 255 255 255 -0.136385 0.693927
-6.994365 -0.439125 9.249999 -0.1363311 -0.6937132 0.707231 255 255 255 255 -0.136331 -0.693713
7.936713 -0.439125 9.249999 0.1363311 -0.6937132 0.707231 255 255 255 255 0.136331 -0.693713
-14.47615 0.818367 -8.551621 -0.7071065 -1.774743e-06 -0.7071071 255 255 255 255 -0.707106 -0.000002
0.072915 -2.560905 -8.551614 0 0 -1 255 255 255 255 0.000000 0.000000
0.072915 -2.560905 8.978385 0 0 1 255 255 255 255 0.000000 0.000000
14.9856 0.811333 8.978385 0.4472136 0 0.8944272 255 255 255 255 0.447214 0.000000
14.9856 0.811333 -8.551614 0.7071068 0 -0.7071068 255 255 255 255 0.707107 0.000000
-14.47615 0.818367 8.978385 -0.4472136 0 0.8944272 255 255 255 255 -0.447214 0.000000
14.9856 2.297386 8.978385 0.8035696 0.4199217 0.4218314 255 255 255 255 0.803570 0.419922
-8.133008 1.445717 -8.551614 0.1644095 0.7825432 -0.6004962 255 255 255 255 0.164410 0.782543
9.04011 1.462776 -8.551614 -0.1317318 0.5849645 -0.8002895 255 255 255 255 -0.131732 0.584965
-5.311547 0.675911 8.978385 0.2167348 0.6729469 0.707226 255 255 255 255 0.216735 0.672947
6.330523 0.669151 8.978385 -0.2020439 0.564364 0.8004197 255 255 255 255 -0.202044 0.564364
-14.47615 2.11248 8.978385 -0.8089437 0.4153774 0.4160189 255 255 255 255 -0.808944 0.415377
1.040986 -2.562767 -8.551614 -2.781385e-06 7.312033e-06 -1 255 255 255 255 -0.000003 0.000007
0.55728 -2.22506 -8.551608 -0.1588842 0.5645318 -0.8099751 255 255 255 255 -0.158884 0.564532
1.040986 -2.562767 8.978385 0 0 1 255 255 255 255 0.000000 0.000000
0.55728 -2.22506 8.978385 0.2665564 0.6685739 0.694231 255 255 255 255 0.266556 0.668574
14.9856 2.297386 -8.551614 0.341645 0.8398435 -0.4218314 255 255 255 255 0.341645 0.839844
-14.47615 2.11248 -8.551621 -0.3698309 0.8307548 -0.4160189 255 255 255 255 -0.369831 0.830755
-2.616655 -0.390083 -8.551614 0.3089528 0.6355448 -0.7075529 255 255 255 255 0.308953 0.635545
3.703009 -0.399879 -8.551614 -0.3118741 0.6341633 -0.7075108 255 255 255 255 -0.311874 0.634163
-2.616655 -0.390083 8.978385 0.2913819 0.6441297 0.7072436 255 255 255 255 0.291382 0.644130
-8.133006 -0.054115 8.978385 0 0 1 255 255 255 255 0.000000 0.000000
-8.133006 -0.054115 -8.551614 -1.32069e-06 1.633971e-06 -1 255 255 255 255 -0.000001 0.000002
9.040118 -0.079063 8.978385 0 0 1 255 255 255 255 0.000000 0.000000
9.040118 -0.079063 -8.551614 0 0 -1 255 255 255 255 0.000000 0.000000
3.703009 -0.399879 8.978385 -0.2896735 0.6445498 0.7075626 255 255 255 255 -0.289674 0.644550
-11.05402 1.922218 8.978385 0.05819782 0.7044511 0.7073625 255 255 255 255 0.058198 0.704451
11.80241 1.993462 8.978385 -0.1003637 0.699548 0.7075024 255 255 255 255 -0.100364 0.699548
-1.324971 -1.645058 -8.551614 1.343581e-06 1.382882e-06 -1 255 255 255 255 0.000001 0.000001
-1.324971 -1.645058 8.978385 0 0 1 255 255 255 255 0.000000 0.000000
2.429576 -1.652199 8.978385 0 0 1 255 255 255 255 0.000000 0.000000
2.429576 -1.652199 -8.551614 0 0 -1 255 255 255 255 0.000000 0.000000
-5.311547 0.675911 -8.551614 0.2290563 0.6688542 -0.7072251 255 255 255 255 0.229056 0.668854
6.330523 0.669151 -8.551614 -0.182932 0.5711806 -0.8001804 255 255 255 255 -0.182932 0.571181
-0.185048 -1.681221 -8.551614 0.3692066 0.6023525 -0.7077132 255 255 255 255 0.369207 0.602352
-8.133008 1.445717 8.978385 0.1174998 0.5419784 0.8321378 255 255 255 255 0.117500 0.541978
-0.185048 -1.681221 8.978385 0.292817 0.4707186 0.8322754 255 255 255 255 0.292817 0.470719
-11.05402 1.922218 -8.551621 0.08305421 0.7015899 -0.7077243 255 255 255 255 0.083054 0.701590
9.04011 1.462776 8.978385 -0.1502223 0.5804912 0.8002895 255 255 255 255 -0.150222 0.580491
1.298058 -1.684029 -8.551614 -0.3741245 0.5989838 -0.7079896 255 255 255 255 -0.374124 0.598984
11.80241 1.993462 -8.551614 -0.07871485 0.5486525 -0.8323367 255 255 255 255 -0.078715 0.548653
1.298058 -1.684029 8.978385 -0.2925944 0.4708762 0.8322644 255 255 255 255 -0.292594 0.470876
7.676924 -0.483162 8.978385 0 0 1 255 255 255 255 0.000000 0.000000
7.676924 -0.483162 -8.551614 0 0 -1 255 255 255 255 0.000000 0.000000
-6.708127 -0.458839 -8.551621 9.936156e-07 3.267943e-06 -1 255 255 255 255 0.000001 0.000003
-6.708127 -0.458839 8.978385 0 0 1 255 255 255 255 0.000000 0.000000
-5.311547 -0.620689 -8.551614 4.851628e-07 2.276272e-06 -1 255 255 255 255 0.000000 0.000002
-5.311547 -0.620689 8.978385 0 0 1 255 255 255 255 0.000000 0.000000
6.330523 -0.640816 8.978385 0 0 1 255 255 255 255 0.000000 0.000000
6.330523 -0.640816 -8.551614 0 0 -1 255 255 255 255 0.000000 0.000000
10.41647 0.071632 -8.551614 0 0 -1 255 255 255 255 0.000000 0.000000
10.41647 0.071632 8.978385 0 0 1 255 255 255 255 0.000000 0.000000
-9.582794 0.098732 8.978385 0 0 1 255 255 255 255 0.000000 0.000000
-11.05402 0.402336 -8.551614 1.137405e-06 -3.346486e-06 -1 255 255 255 255 0.000001 -0.000003
-11.05402 0.402336 8.978385 0 0 1 255 255 255 255 0.000000 0.000000
-1.324975 -1.036766 8.978385 0.3322002 0.6243925 0.7069492 255 255 255 255 0.332200 0.624393
0.483853 -2.137291 8.978385 0.4482263 0.5430111 0.7100931 255 255 255 255 0.448226 0.543011
11.80241 0.378914 -8.551614 0 0 -1 255 255 255 255 0.000000 0.000000
11.80241 0.378914 8.978385 0 0 1 255 255 255 255 0.000000 0.000000
-0.525499 -2.091438 -8.551614 0 0 -1 255 255 255 255 0.000000 0.000000
0.538924 -2.523811 8.978385 0 0 1 255 255 255 255 0.000000 0.000000
-0.525499 -2.091438 8.978385 0 0 1 255 255 255 255 0.000000 0.000000
1.636759 -2.095589 8.978385 0 0 1 255 255 255 255 0.000000 0.000000
1.636759 -2.095589 -8.551614 0 0 -1 255 255 255 255 0.000000 0.000000
2.429568 -1.043526 8.978385 -0.3335864 0.6236442 0.7069569 255 255 255 255 -0.333586 0.623644
-3.94662 0.180305 -8.551614 0.2662981 0.6549106 -0.7072323 255 255 255 255 0.266298 0.654911
5.004622 0.170067 -8.551614 -0.2665283 0.6551353 -0.7069374 255 255 255 255 -0.266528 0.655135
0.483853 -2.137291 -8.551614 0.4964463 0.4993212 -0.7100841 255 255 255 255 0.496446 0.499321
0.630692 -2.137566 8.978385 -0.453886 0.5389531 0.7095894 255 255 255 255 -0.453886 0.538953
-3.94662 0.180305 8.978385 0.2538383 0.6598383 0.7072337 255 255 255 255 0.253838 0.659838
-3.946616 -0.936928 -8.551621 9.840114e-07 5.935434e-06 -1 255 255 255 255 0.000001 0.000006
-3.946616 -0.936928 8.978385 0 0 1 255 255 255 255 0.000000 0.000000
-6.708127 1.097572 8.978385 0.1800436 0.6836848 0.7072195 255 255 255 255 0.180044 0.683685
-6.708127 1.097572 -8.551614 0.1922273 0.6803606 -0.7072185 255 255 255 255 0.192227 0.680361
0.538924 -2.523811 -8.551614 3.18012e-05 1.081487e-05 -1 255 255 255 255 0.000032 0.000011
5.004622 -0.953178 -8.551614 0 0 -1 255 255 255 255 0.000000 0.000000
5.004622 -0.953178 8.978385 0 0 1 255 255 255 255 0.000000 0.000000
-9.582794 1.720558 8.978385 0.1139108 0.6980508 0.7069296 255 255 255 255 0.113911 0.698051
-9.223096 2.394676 8.978385 0.130154 0.6941961 0.7079207 255 255 255 255 0.130154 0.694196
0.633982 -2.137566 -8.551608 0.31765 0.3148116 -0.8944228 255 255 255 255 0.317650 0.314812
0.633982 -2.137566 8.978385 0.3939502 0.3905067 0.8320503 255 255 255 255 0.393950 0.390507
-9.223096 2.394676 -8.551614 0.163351 0.6871354 -0.7079276 255 255 255 255 0.163351 0.687135
-16.00154 2.499031 -8.551621 -0.3445829 0.6735429 -0.6539134 255 255 255 255 -0.344583 0.673543
-16.00154 2.499031 8.978385 -0.8029878 0.4447936 0.3966981 255 255 255 255 -0.802988 0.444794
-4.917096 1.008781 -8.551608 0.2792759 0.7495392 -0.6001633 255 255 255 255 0.279276 0.749539
-4.917095 1.008781 8.978385 0.193612 0.5196279 0.8321666 255 255 255 255 0.193612 0.519628
-1.05865 -0.875954 8.978385 0.422763 0.6789523 0.600246 255 255 255 255 0.422763 0.678952
-2.266023 -0.174522 -8.551614 0.3402008 0.6196533 -0.7073141 255 255 255 255 0.340201 0.619653
-11.83881 2.615135 8.978385 0.01085396 0.7996787 0.6003301 255 255 255 255 0.010854 0.799679
-0.33434 -1.353127 -8.551614 0.39755 0.5848291 -0.7070565 255 255 255 255 0.397550 0.584829
-11.85203 2.51519 -8.551621 -0.01902887 -0.7065831 -0.7073742 255 255 255 255 -0.019029 -0.706583
-2.306014 -0.263451 8.978385 -0.3248197 -0.627853 0.7073138 255 255 255 255 -0.324820 -0.627853
-0.378835 -1.437859 -8.551621 -0.3970267 -0.5849896 -0.7072179 255 255 255 255 -0.397027 -0.584990
-1.101062 -0.962715 8.978385 -0.4224247 -0.6792755 0.6001186 255 255 255 255 -0.422425 -0.679276
-9.24023 2.297249 8.978385 -0.1295427 -0.6943058 0.7079253 255 255 255 255 -0.129543 -0.694306
-9.24023 2.297249 -8.551614 -0.1628348 -0.6872694 -0.7079164 255 255 255 255 -0.162835 -0.687269
0.56831 -2.222298 8.978385 -0.7337582 -0.5114675 0.4472135 255 255 255 255 -0.733758 -0.511468
0.56831 -2.222298 -8.551608 -0.5800611 -0.4043774 -0.7071125 255 255 255 255 -0.580061 -0.404377
-4.948831 0.915276 8.978385 -0.193723 -0.519591 0.8321638 255 255 255 255 -0.193723 -0.519591
-2.306014 -0.263451 -8.551614 -0.3399204 -0.6198076 -0.7073138 255 255 255 255 -0.339920 -0.619808
-4.948831 0.915276 -8.551614 -0.2794307 -0.7494715 -0.6001758 255 255 255 255 -0.279431 -0.749471
-10.14129 2.521629 8.978385 0.05325443 0.5518107 0.8322673 255 255 255 255 0.053254 0.551811
-7.787422 1.878349 8.978385 -0.2393778 -0.7632656 0.6001032 255 255 255 255 -0.239378 -0.763266
-2.266025 -0.174522 8.978385 0.3250917 0.6277119 0.7073141 255 255 255 255 0.325092 0.627712
-7.76687 1.973824 8.978385 0.2393936 0.7632648 0.600098 255 255 255 255 0.239394 0.763265
-16.00767 2.398415 -8.551621 -0.6738567 -0.6521357 -0.3473273 255 255 255 255 -0.673857 -0.652136
-11.83881 2.615135 -8.551621 0.007523872 0.5543043 -0.8322802 255 255 255 255 0.007524 0.554304
-7.76687 1.973824 -8.551614 0.1659724 0.529173 -0.8321233 255 255 255 255 0.165972 0.529173
-11.85203 2.51519 8.978385 0.0004198377 -0.7068391 0.7073743 255 255 255 255 0.000420 -0.706839
-7.787422 1.878349 -8.551608 -0.1659701 -0.5292039 -0.8321041 255 255 255 255 -0.165970 -0.529204
-10.14129 2.521629 -8.551621 0.07682687 0.7960458 -0.6003405 255 255 255 255 0.076827 0.796046
-10.15443 2.422707 8.978385 -0.0577106 -0.704483 0.7073706 255 255 255 255 -0.057711 -0.704483
-0.030818 -1.567955 8.978385 0.4135046 0.5733204 0.7073314 255 255 255 255 0.413505 0.573320
-0.077073 -1.65107 8.978385 -0.4130778 -0.5737732 0.7072136 255 255 255 255 -0.413078 -0.573773
-16.00767 2.398415 8.978385 -0.4020218 -0.3890631 0.8288597 255 255 255 255 -0.402022 -0.389063
-3.555213 0.454048 8.978385 0.2811969 0.6485986 0.7072823 255 255 255 255 0.281197 0.648599
-3.591298 0.362556 8.978385 -0.2810419 -0.6486673 0.7072809 255 255 255 255 -0.281042 -0.648667
-3.555213 0.454048 -8.551614 0.2955819 0.6421705 -0.7072824 255 255 255 255 0.295582 0.642171
-3.591298 0.362556 -8.551614 -0.2953718 -0.6422613 -0.7072877 255 255 255 255 -0.295372 -0.642261
0.505259 -2.131844 8.978385 -0.5368498 -0.4576334 0.7087764 255 255 255 255 -0.536850 -0.457633
-10.15443 2.422707 -8.551614 -0.07694214 -0.7026609 -0.7073526 255 255 255 255 -0.076942 -0.702661
0.505259 -2.131844 -8.551614 -0.5272903 -0.4674162 -0.7095682 255 255 255 255 -0.527290 -0.467416
-1.05865 -0.875954 -8.551614 0.2919472 0.4714951 -0.8321413 255 255 255 255 0.291947 0.471495
-1.101062 -0.962715 -8.551614 -0.2916824 -0.4716423 -0.8321508 255 255 255 255 -0.291682 -0.471642
0.422362 -1.92408 8.978385 0.4590582 0.5370424 0.7077084 255 255 255 255 0.459058 0.537042
0.422362 -1.92408 -8.551621 0.5659861 0.6092852 -0.555366 255 255 255 255 0.565986 0.609285
-0.03082 -1.567955 -8.551608 0.4275005 0.563122 -0.7072036 255 255 255 255 0.427501 0.563122
-0.077073 -1.65107 -8.551614 -0.4316564 -0.5599388 -0.7072067 255 255 255 255 -0.431656 -0.559939
0.371918 -2.003136 8.978385 -0.4593529 -0.5370106 0.7075412 255 255 255 255 -0.459353 -0.537011
3 80 11 53 
3 55 27 82 
3 76 71 63 
3 60 68 36 
3 83 28 54 
3 52 8 81 
3 62 70 77 
3 40 69 61 
3 22 37 32 
3 39 41 33 
3 39 33 2 
3 32 31 22 
3 77 78 62 
3 61 43 40 
3 54 57 51 
3 48 26 52 
3 50 56 55 
3 53 25 49 
3 36 42 60 
3 63 79 76 
3 33 12 14 
3 69 40 77 
3 69 77 70 
3 41 39 7 
3 42 79 63 
3 42 63 60 
3 14 2 33 
3 62 78 43 
3 76 36 68 
3 41 37 22 
3 41 22 33 
3 59 64 0 
3 55 53 11 
3 55 11 27 
3 8 52 54 
3 8 54 28 
3 4 65 58 
3 4 58 5 
3 51 57 26 
3 51 26 48 
3 29 34 18 
3 25 56 50 
3 19 35 30 
3 30 66 19 
3 64 66 30 
3 18 67 29 
3 29 67 65 
3 22 1 12 
3 38 1 22 
3 68 71 76 
3 50 49 25 
3 19 25 59 
3 64 59 25 
3 58 26 18 
3 26 58 65 
3 43 61 62 
3 34 29 4 
3 65 4 29 
3 30 0 64 
3 0 30 35 
3 22 31 38 
3 32 2 31 
3 2 32 39 
3 13 32 37 
3 12 33 22 
3 18 34 5 
3 18 5 58 
3 4 5 34 
3 35 3 0 
3 3 35 19 
3 15 6 75 
3 73 75 6 
3 6 15 37 
3 37 15 13 
3 2 14 38 
3 38 31 2 
3 13 7 39 
3 39 32 13 
3 12 74 72 
3 74 12 1 
3 37 41 6 
3 7 6 41 
3 13 73 7 
3 6 7 73 
3 14 72 38 
3 72 14 12 
3 47 44 1 
3 1 44 74 
3 75 45 15 
3 15 45 46 
3 46 13 15 
3 73 13 46 
3 1 38 47 
3 47 38 72 
3 9 81 8 
3 81 9 23 
3 81 23 83 
3 11 80 10 
3 24 10 80 
3 80 82 24 
3 24 82 27 
3 28 83 23 
3 52 17 21 
3 17 52 26 
3 25 53 16 
3 20 16 53 
3 21 54 52 
3 57 54 21 
3 53 55 20 
3 20 55 56 
3 25 19 56 
3 56 19 20 
3 57 18 26 
3 21 18 57 
3 19 59 3 
3 0 3 59 
3 68 60 11 
3 27 11 60 
3 27 60 63 
3 61 8 28 
3 61 28 62 
3 8 61 69 
3 70 62 28 
3 27 63 71 
3 25 16 64 
3 66 64 16 
3 17 65 67 
3 65 17 26 
3 16 20 66 
3 66 20 19 
3 67 21 17 
3 18 21 67 
3 71 68 10 
3 11 10 68 
3 69 9 8 
3 9 69 70 
3 9 70 23 
3 28 23 70 
3 71 24 27 
3 10 24 71 
3 72 43 47 
3 43 72 74 
3 46 42 73 
3 75 73 42 
3 74 40 43 
3 40 74 44 
3 42 36 75 
3 45 75 36 
3 45 76 46 
3 36 76 45 
3 44 77 40 
3 47 77 44 
3 77 47 78 
3 78 47 43 
3 42 46 79 
3 79 46 76 
3 82 80 49 
3 53 49 80 
3 48 81 83 
3 48 83 51 
3 81 48 52 
3 82 50 55 
3 49 50 82 
3 54 51 83 
3 153 149 116 
3 109 94 150 
3 100 124 111 
3 91 161 119 
3 160 132 94 
3 160 94 109 
3 90 87 88 
3 149 154 130 
3 149 130 116 
3 110 121 101 
3 117 150 94 
3 150 117 133 
3 104 153 155 
3 104 155 113 
3 118 139 120 
3 122 111 92 
3 135 142 111 
3 135 111 122 
3 84 89 95 
3 136 105 119 
3 136 119 161 
3 154 149 102 
3 154 102 112 
3 159 115 103 
3 96 158 97 
3 109 114 160 
3 120 139 145 
3 152 144 98 
3 88 100 90 
3 88 141 124 
3 88 124 100 
3 84 101 121 
3 95 101 84 
3 112 102 118 
3 139 118 102 
3 103 123 148 
3 123 103 115 
3 149 153 104 
3 89 138 110 
3 121 137 84 
3 87 90 111 
3 87 111 142 
3 146 148 125 
3 125 148 123 
3 110 95 89 
3 101 95 110 
3 111 90 100 
3 118 143 112 
3 113 145 139 
3 148 146 114 
3 115 147 123 
3 157 128 106 
3 157 106 91 
3 156 157 91 
3 92 117 122 
3 117 92 108 
3 140 151 118 
3 85 118 151 
3 157 156 93 
3 129 131 93 
3 129 93 156 
3 118 120 140 
3 140 120 86 
3 161 91 121 
3 126 122 94 
3 94 122 117 
3 123 97 152 
3 97 123 96 
3 124 92 111 
3 141 134 92 
3 141 92 124 
3 98 125 152 
3 152 125 123 
3 122 126 107 
3 108 127 117 
3 156 119 105 
3 156 105 129 
3 128 157 116 
3 128 116 130 
3 94 132 126 
3 127 133 117 
3 134 108 92 
3 122 107 135 
3 91 106 137 
3 91 137 121 
3 161 110 138 
3 161 138 136 
3 102 104 139 
3 139 104 113 
3 151 140 99 
3 144 99 140 
3 118 85 143 
3 86 144 140 
3 145 86 120 
3 125 98 146 
3 147 96 123 
3 114 109 148 
3 148 109 103 
3 104 102 149 
3 150 103 109 
3 103 150 159 
3 97 158 151 
3 99 97 151 
3 144 152 99 
3 99 152 97 
3 131 155 153 
3 131 153 93 
3 116 93 153 
3 91 119 156 
3 93 116 157 
3 151 158 85 
3 133 159 150 
3 121 110 161 
3 201 199 187 
3 175 200 202 
3 183 207 177 
3 170 206 171 
3 189 174 192 
3 172 190 166 
3 192 198 189 
3 166 167 172 
3 193 184 186 
3 188 168 191 
3 182 186 184 
3 168 188 169 
3 210 196 208 
3 212 197 211 
3 199 201 168 
3 184 202 200 
3 195 192 174 
3 194 185 162 
3 211 205 212 
3 208 209 210 
3 174 204 195 
3 194 190 172 
3 177 175 183 
3 171 187 170 
3 171 206 207 
3 205 211 210 
3 175 177 170 
3 208 196 197 
3 162 185 195 
3 169 188 186 
3 190 194 204 
3 184 193 191 
3 197 212 208 
3 210 209 205 
3 187 199 200 
3 186 182 169 
3 207 183 171 
3 168 201 202 
3 202 184 168 
3 191 168 184 
3 198 192 172 
3 172 185 194 
3 178 186 188 
3 186 178 179 
3 200 175 187 
3 170 187 175 
3 188 162 178 
3 165 162 188 
3 174 189 166 
3 167 166 189 
3 204 174 190 
3 166 190 174 
3 188 191 165 
3 165 191 193 
3 185 172 192 
3 192 195 185 
3 193 179 165 
3 179 193 186 
3 194 165 179 
3 162 165 194 
3 178 195 204 
3 195 178 162 
3 173 170 196 
3 196 170 177 
3 197 177 176 
3 177 197 196 
3 172 167 198 
3 189 198 167 
3 199 169 182 
3 168 169 199 
3 182 200 199 
3 200 182 184 
3 201 171 183 
3 187 171 201 
3 183 202 201 
3 202 183 175 
3 203 180 164 
3 180 203 205 
3 204 179 178 
3 179 204 194 
3 205 181 180 
3 181 205 163 
3 170 173 206 
3 206 173 176 
3 176 207 206 
3 207 176 177 
3 209 208 164 
3 164 208 212 
3 164 163 209 
3 209 163 205 
3 173 210 211 
3 196 210 173 
3 176 211 197 
3 211 176 173 
3 203 212 205 
3 212 203 164 
